<?xml version="1.0" encoding="utf-8"?>
<!-- Generator: Adobe Illustrator 24.1.1, SVG Export Plug-In . SVG Version: 6.00 Build 0)  -->
<svg version="1.1" id="Layer_1" xmlns="http://www.w3.org/2000/svg" xmlns:xlink="http://www.w3.org/1999/xlink" x="0px" y="0px"
	 viewBox="0 0 300 300" style="enable-background:new 0 0 300 300;" xml:space="preserve">
<style type="text/css">
	.st0{fill:#FFD700;}
</style>
<g>
	<path class="st0" d="M147.2,114.2c-20,0-40.1,0-60.1,0c-7.5,0-11.6-2.4-13.7-7.9c-2.1-5.6-0.3-9.9,5.2-14.9
		c1.2-1.1,1.8-3.5,1.9-5.3c0.5-33.7,24.2-61.5,56.9-66.7c39.5-6.3,75.7,24.3,76.9,65.1c0.1,3.6,0.6,6.2,3.9,8.6
		c4.3,3.1,5.1,8,3.4,13.1c-1.8,5.2-5.9,7.9-12.1,8C188.7,114.3,167.9,114.2,147.2,114.2z"/>
	<path class="st0" d="M148.8,282.8c-17.7-50.4-35.4-100.8-53.3-151.7c35.4,0,70.2,0,105.8,0c-17.1,50.7-34.1,101.1-51.2,151.5
		C149.7,282.7,149.3,282.7,148.8,282.8z"/>
</g>
</svg>
